<svg width="26" height="26" viewBox="0 0 32 32" fill="none" xmlns="http://www.w3.org/2000/svg">
<g clip-path="url(#clip0_527_1119)">
<rect width="32" height="32" rx="16" fill="#002012"/>
<path d="M-8.22266 12.5024L11.2338 -2.91232C36.1095 7.43181 7.73691 20.7315 34.9166 26.9801L15.4601 42.3948L-8.22266 12.5024Z" fill="#053F26"/>
<path d="M-17.0886 30.1078L3.59969 2.11205C42.3661 8.61406 -13.5421 40.1101 26.0506 44.5854L6.59412 60.0001L-17.0886 30.1078Z" fill="#07492C"/>
<path d="M-15.9062 15.458L3.55026 0.0432477C42.3166 6.54526 -12.3597 25.4603 27.233 29.9356L7.77651 45.3504L-15.9062 15.458Z" fill="#0F5033"/>
<path d="M-23 17.2314L-3.54349 1.81668C20.1393 12.7519 1.2349 23.3916 20.1393 31.7091L0.682758 47.1238L-23 17.2314Z" fill="#166B46"/>
</g>
<defs>
<clipPath id="clip0_527_1119">
<rect width="32" height="32" rx="16" fill="white"/>
</clipPath>
</defs>
</svg>
